<svg width="20" height="20" viewBox="0 0 20 20" fill="none" xmlns="http://www.w3.org/2000/svg">
<path d="M17.955 13.3838C17.7206 13.6181 17.4027 13.7497 17.0713 13.7497C16.7398 13.7497 16.4219 13.6181 16.1875 13.3838L10 7.19626L3.8125 13.3838C3.57675 13.6115 3.26099 13.7374 2.93325 13.7346C2.6055 13.7318 2.29199 13.6003 2.06023 13.3685C1.82847 13.1368 1.69701 12.8233 1.69416 12.4955C1.69131 12.1678 1.8173 11.852 2.045 11.6163L9.11625 4.54501C9.35066 4.31067 9.66855 4.17902 10 4.17902C10.3315 4.17902 10.6493 4.31067 10.8838 4.54501L17.955 11.6163C18.1893 11.8507 18.321 12.1686 18.321 12.5C18.321 12.8315 18.1893 13.1493 17.955 13.3838Z" fill="#111111"/>
</svg>
