<svg width="18" height="18" viewBox="0 0 18 18" fill="none" xmlns="http://www.w3.org/2000/svg">
<path d="M13.6986 3.45588C12.0428 1.80002 9.34631 1.80002 7.6922 3.45588L3.10431 8.04026C3.07443 8.07014 3.05861 8.11057 3.05861 8.15276C3.05861 8.19495 3.07443 8.23538 3.10431 8.26526L3.75295 8.91389C3.78259 8.94341 3.82273 8.95998 3.86457 8.95998C3.90641 8.95998 3.94654 8.94341 3.97619 8.91389L8.56408 4.32952C9.13361 3.75999 9.89123 3.44709 10.6963 3.44709C11.5014 3.44709 12.259 3.75999 12.8268 4.32952C13.3963 4.89905 13.7092 5.65666 13.7092 6.45999C13.7092 7.26506 13.3963 8.02092 12.8268 8.59045L8.15099 13.2645L7.39338 14.0221C6.68498 14.7305 5.53361 14.7305 4.82521 14.0221C4.48244 13.6793 4.29435 13.224 4.29435 12.7389C4.29435 12.2537 4.48244 11.7985 4.82521 11.4557L9.46408 6.81858C9.58185 6.70256 9.73654 6.63752 9.90177 6.63752H9.90353C10.0688 6.63752 10.2217 6.70256 10.3377 6.81858C10.4555 6.93635 10.5188 7.09104 10.5188 7.25627C10.5188 7.41975 10.4537 7.57444 10.3377 7.69045L6.54611 11.4785C6.51623 11.5084 6.50041 11.5489 6.50041 11.591C6.50041 11.6332 6.51623 11.6737 6.54611 11.7035L7.19474 12.3522C7.22439 12.3817 7.26453 12.3983 7.30636 12.3983C7.3482 12.3983 7.38834 12.3817 7.41798 12.3522L11.2078 8.56233C11.5576 8.21252 11.7492 7.74846 11.7492 7.25452C11.7492 6.76057 11.5559 6.29475 11.2078 5.9467C10.4854 5.22424 9.31115 5.226 8.58869 5.9467L8.13869 6.39846L3.95158 10.5838C3.66739 10.8663 3.44213 11.2025 3.28884 11.5727C3.13555 11.9429 3.0573 12.3399 3.05861 12.7406C3.05861 13.5545 3.37677 14.3192 3.95158 14.894C4.54748 15.4881 5.32795 15.7852 6.10841 15.7852C6.88888 15.7852 7.66935 15.4881 8.26349 14.894L13.6986 9.46233C14.4985 8.66077 14.9414 7.59377 14.9414 6.45999C14.9432 5.32444 14.5002 4.25745 13.6986 3.45588Z" fill="#5F3DC4"/>
</svg>
