<svg width="36" height="36" viewBox="0 0 36 36" fill="none" xmlns="http://www.w3.org/2000/svg">
<path d="M18.0002 20.1L10.6502 27.45C10.3752 27.725 10.0252 27.8625 9.6002 27.8625C9.1752 27.8625 8.82519 27.725 8.55019 27.45C8.27519 27.175 8.1377 26.825 8.1377 26.4C8.1377 25.975 8.27519 25.625 8.55019 25.35L15.9002 18L8.55019 10.65C8.27519 10.375 8.1377 10.025 8.1377 9.6C8.1377 9.175 8.27519 8.825 8.55019 8.55C8.82519 8.275 9.1752 8.1375 9.6002 8.1375C10.0252 8.1375 10.3752 8.275 10.6502 8.55L18.0002 15.9L25.3502 8.55C25.6252 8.275 25.9752 8.1375 26.4002 8.1375C26.8252 8.1375 27.1752 8.275 27.4502 8.55C27.7252 8.825 27.8627 9.175 27.8627 9.6C27.8627 10.025 27.7252 10.375 27.4502 10.65L20.1002 18L27.4502 25.35C27.7252 25.625 27.8627 25.975 27.8627 26.4C27.8627 26.825 27.7252 27.175 27.4502 27.45C27.1752 27.725 26.8252 27.8625 26.4002 27.8625C25.9752 27.8625 25.6252 27.725 25.3502 27.45L18.0002 20.1Z" fill="#D1D5DB"/>
</svg>
