<svg width="131" height="44" viewBox="0 0 131 44" fill="none" xmlns="http://www.w3.org/2000/svg">
<path d="M44.3808 22C44.3808 34.1498 34.5298 44 22.3789 44C10.228 44 0.376953 34.1498 0.376953 22C0.376953 9.85019 10.228 0 22.3789 0C34.5298 0 44.3808 9.85019 44.3808 22Z" fill="white"/>
<path d="M32.7072 20.4662C29.2076 18.0878 24.7263 19.057 22.3704 22.633C20.411 25.6217 17.4449 25.9953 16.3033 25.9953C12.5567 25.9953 9.99953 23.3595 9.23984 20.6364H9.23777C9.22739 20.6074 9.22324 20.5825 9.21493 20.5596C9.20663 20.5285 9.20248 20.4995 9.1921 20.4683C8.89321 19.331 8.81641 18.7913 8.81641 17.5813C8.81641 11.0706 15.5021 3.81888 25.1227 3.81888C34.7434 3.81888 40.6196 11.3217 42.0767 15.4913C42.0476 15.4145 42.0248 15.344 41.9999 15.2693C39.204 7.11266 31.4701 1.24945 22.36 1.24945C10.9066 1.24945 1.61182 10.5372 1.61182 22C1.61182 32.2445 9.00114 41.0093 19.2528 41.0093C27.4246 41.0093 32.921 36.4308 35.4367 30.111C36.819 26.6553 35.8435 22.5957 32.7051 20.4642" fill="#313131"/>
<path d="M42.2054 15.8919C40.989 11.8239 35.3121 3.81677 25.1227 3.81677C15.5021 3.81677 8.81641 11.0685 8.81641 17.5792C8.81641 18.7871 8.89321 19.3268 9.1921 20.4662C9.06548 19.9681 9.00322 19.4721 9.00322 18.9864C9.00322 12.2038 15.7927 7.50696 22.7731 7.50696C32.2256 7.50696 39.8848 15.1655 39.8848 24.613C39.8848 32.0183 35.6214 38.4315 29.4318 41.5115V41.5156C37.4168 38.6245 43.1166 30.9785 43.1166 21.9979C43.1166 19.8726 42.8322 17.9985 42.2074 15.8919" fill="#737373"/>
<path d="M66.2416 21.67V26.2443H64.332V23.3553H54.4062V21.67H66.2395H66.2416ZM59.3961 31.3873V29.1521H53.3062V27.4668H67.4102V29.1521H61.3036V31.3873H66.2748V36.7358H64.3652V33.056H54.2693V31.3873H59.3961Z" fill="white"/>
<path d="M81.8068 27.3111H84.0091V29.2205H81.8068V36.7026H79.9159V21.3607H81.8068V27.3111ZM76.5429 34.6894H74.652V24.0256H68.9253V22.3051H76.545V34.6873L76.5429 34.6894Z" fill="white"/>
<path d="M96.9778 21.3586H98.8874V36.7005H96.9778V21.3586ZM93.144 34.6894H91.2345V24.0256H85.3521V22.3051H93.144V34.6873V34.6894Z" fill="white"/>
<path d="M102.466 31.954H114.472V36.7359H112.562V33.5708H102.466V31.954ZM102.638 21.5143H114.472V25.6591H104.529V26.6553H114.505V28.2368H109.5V29.3036H115.607V30.9204H101.503V29.3036H107.591V28.2368H102.638V24.0921H112.564V23.1125H102.638V21.5123V21.5143Z" fill="white"/>
<path d="M128.92 21.3587H130.813V33.0726H128.92V27.4128H126.786V25.7628H128.92V21.3607V21.3587ZM124.501 24.7313C124.501 24.1813 124.304 23.7185 123.908 23.347C123.511 22.9755 123.044 22.7887 122.504 22.7887C121.965 22.7887 121.498 22.9755 121.103 23.347C120.709 23.7185 120.51 24.1813 120.51 24.7313C120.51 25.2813 120.707 25.7255 121.103 26.099C121.5 26.4726 121.967 26.6573 122.504 26.6573C123.042 26.6573 123.511 26.4726 123.908 26.099C124.304 25.7275 124.501 25.2709 124.501 24.7313ZM126.34 24.7313C126.34 25.2253 126.236 25.684 126.031 26.1073C125.825 26.5307 125.556 26.9106 125.221 27.2426C124.864 27.5643 124.456 27.8155 123.991 28.0002C123.526 28.1828 123.03 28.2762 122.502 28.2762C121.975 28.2762 121.479 28.1849 121.014 28.0002C120.549 27.8155 120.14 27.5643 119.785 27.2426C119.453 26.9106 119.183 26.5307 118.976 26.1073C118.77 25.684 118.667 25.2253 118.667 24.7313C118.667 24.2373 118.77 23.7766 118.976 23.347C119.181 22.9173 119.451 22.5355 119.785 22.2034C120.14 21.8817 120.551 21.6306 121.014 21.4458C121.479 21.2611 121.975 21.1698 122.502 21.1698C123.03 21.1698 123.526 21.2611 123.991 21.4458C124.456 21.6306 124.864 21.8817 125.221 22.2034C125.554 22.5355 125.823 22.9173 126.031 23.347C126.236 23.7766 126.34 24.2394 126.34 24.7313ZM118.548 36.4432V32.0577H120.439V34.7745H131V36.4432H118.546H118.548ZM127.7 30.5779H123.642V32.9004H121.732V30.5779H117.5V28.8926H127.7V30.5779Z" fill="white"/>
<path d="M60.8615 10.9356H59.6182V5.01224H60.8615V7.36375H61.9699V4.99979H63.2631V11.0871H61.9699V8.5862H60.8615V10.9377V10.9356ZM60.8885 13.723C60.8885 13.3743 60.7598 13.0734 60.5024 12.8139C60.2451 12.5566 59.9379 12.4279 59.5809 12.4279C59.2238 12.4279 58.9187 12.5587 58.6655 12.8139C58.4123 13.0734 58.2856 13.3743 58.2856 13.723C58.2856 14.0717 58.4123 14.3726 58.6655 14.6258C58.9187 14.879 59.2238 15.0056 59.5809 15.0056C59.9379 15.0056 60.2451 14.879 60.5024 14.6258C60.7598 14.3726 60.8885 14.0717 60.8885 13.723ZM62.2066 13.7354C62.2066 14.0675 62.136 14.3809 61.9948 14.6756C61.8537 14.9704 61.6669 15.2298 61.4344 15.4519C61.1936 15.6781 60.9155 15.8566 60.6 15.9894C60.2845 16.1202 59.9482 16.1887 59.5912 16.1887C59.2342 16.1887 58.8959 16.1222 58.5762 15.9894C58.2566 15.8545 57.9764 15.6781 57.7356 15.4519C57.5031 15.2298 57.3163 14.9704 57.1752 14.6756C57.034 14.383 56.9635 14.0696 56.9635 13.7354C56.9635 13.4013 57.034 13.0879 57.1752 12.789C57.3163 12.4902 57.5031 12.2287 57.7356 12.0045C57.9764 11.7804 58.2566 11.6019 58.5762 11.469C58.8959 11.3362 59.2342 11.2698 59.5912 11.2698C59.9482 11.2698 60.2845 11.3362 60.6 11.469C60.9155 11.6019 61.1936 11.7804 61.4344 12.0045C61.6648 12.2287 61.8537 12.4902 61.9948 12.789C62.136 13.0879 62.2066 13.4034 62.2066 13.7354ZM57.4512 9.34167C57.4512 9.0179 57.3329 8.73771 57.0963 8.50111C56.8597 8.26658 56.5753 8.1462 56.2432 8.1462C55.9111 8.1462 55.6288 8.2645 55.3963 8.50111C55.1639 8.73771 55.0476 9.0179 55.0476 9.34167C55.0476 9.66545 55.1639 9.94356 55.3963 10.176C55.6288 10.4085 55.9111 10.5247 56.2432 10.5247C56.5753 10.5247 56.8597 10.4105 57.0963 10.176C57.3329 9.94356 57.4512 9.66545 57.4512 9.34167ZM58.7091 9.35413C58.7091 9.6696 58.6427 9.96431 58.5098 10.2383C58.377 10.5122 58.1985 10.753 57.9743 10.9605C57.7522 11.1681 57.4907 11.3321 57.1959 11.4524C56.9012 11.5728 56.5836 11.633 56.2432 11.633C55.9028 11.633 55.5852 11.5728 55.2905 11.4524C54.9957 11.3321 54.7363 11.1702 54.5121 10.9605C54.2879 10.753 54.1094 10.5122 53.9766 10.2383C53.8437 9.96431 53.7773 9.6696 53.7773 9.35413C53.7773 9.03865 53.8437 8.74186 53.9766 8.46375C54.1094 8.18563 54.2879 7.94281 54.5121 7.73526C54.7363 7.52771 54.9937 7.36167 55.2905 7.2413C55.5852 7.12299 55.9028 7.0628 56.2432 7.0628C56.5836 7.0628 56.9012 7.12299 57.1959 7.2413C57.4907 7.36167 57.7501 7.52564 57.9743 7.73526C58.1985 7.94281 58.377 8.18563 58.5098 8.46375C58.6406 8.73979 58.7091 9.03865 58.7091 9.35413ZM55.5229 5.68262V4.77356H56.9551V5.68262H58.9457V6.80337H53.3062V5.68262H55.5229Z" fill="white"/>
<path d="M73.0248 10.7488V8.39523H71.0072V7.23711H73.0248V4.99768H74.3698V10.7488H73.0248ZM72.1281 13.5237C72.1281 13.1169 71.9786 12.7662 71.6797 12.4715C71.3808 12.1767 71.028 12.0294 70.6212 12.0294C70.2143 12.0294 69.8635 12.1767 69.5688 12.4715C69.272 12.7662 69.1267 13.1169 69.1267 13.5237C69.1267 13.9305 69.2741 14.2792 69.5688 14.5698C69.8635 14.8582 70.2122 15.0056 70.6212 15.0056C71.0301 15.0056 71.3788 14.8603 71.6797 14.5698C71.9786 14.2792 72.1281 13.9305 72.1281 13.5237ZM73.4482 13.5362C73.4482 13.9015 73.3735 14.2439 73.224 14.5615C73.0746 14.879 72.8753 15.1613 72.6262 15.402C72.3688 15.6428 72.0679 15.8316 71.7233 15.9728C71.3788 16.116 71.0155 16.1865 70.6336 16.1865C70.2517 16.1865 69.8864 16.116 69.5377 15.9728C69.1869 15.8316 68.8859 15.6428 68.6285 15.402C68.3794 15.1613 68.1802 14.879 68.0307 14.5615C67.8813 14.2418 67.8066 13.9015 67.8066 13.5362C67.8066 13.1709 67.8813 12.8264 68.0307 12.5026C68.1802 12.1767 68.3794 11.8986 68.6285 11.6558C68.8859 11.415 69.189 11.2241 69.5377 11.083C69.8864 10.9418 70.2496 10.8713 70.6336 10.8713C71.0176 10.8713 71.3788 10.9439 71.7233 11.083C72.0679 11.2241 72.3688 11.415 72.6262 11.6558C72.8753 11.8986 73.0746 12.1767 73.224 12.5026C73.3735 12.8264 73.4482 13.1709 73.4482 13.5362ZM64.8342 6.46504V5.30693H71.0591V6.46504H68.4064L71.1712 9.83976L70.2247 10.6098L68.0079 7.84523L65.8056 10.7965L64.8218 9.99957L67.5741 6.46296H64.8363L64.8342 6.46504Z" fill="white"/>
<path d="M85.0137 11.9422H83.6687V4.99768H85.0137V7.36164H86.5705V8.6941H85.0137V11.9422ZM80.8188 8.04655C80.8188 7.80579 80.7711 7.57749 80.6756 7.36164C80.5801 7.14579 80.4535 6.95485 80.2958 6.78881C80.1297 6.63108 79.9408 6.50447 79.7291 6.409C79.5174 6.31353 79.2911 6.26579 79.0504 6.26579C78.8096 6.26579 78.5813 6.31561 78.3654 6.409C78.1495 6.50447 77.9586 6.63108 77.7925 6.78881C77.6348 6.95485 77.5082 7.14579 77.4127 7.36164C77.3172 7.57749 77.2695 7.80579 77.2695 8.04655C77.2695 8.2873 77.3172 8.51353 77.4127 8.72523C77.5082 8.939 77.6348 9.12787 77.7925 9.29391C77.9586 9.44957 78.1495 9.57617 78.3654 9.67164C78.5813 9.76711 78.8096 9.81485 79.0504 9.81485C79.2911 9.81485 79.5174 9.76711 79.7291 9.67164C79.9408 9.5741 80.1297 9.44957 80.2958 9.29391C80.4535 9.12579 80.5801 8.93693 80.6756 8.72523C80.7711 8.51353 80.8188 8.2873 80.8188 8.04655ZM77.9918 12.0065V14.4328H85.2877V15.6282H76.6468V12.0065H77.9918ZM82.114 8.0341C82.114 8.44296 82.0331 8.82277 81.8712 9.17976C81.7093 9.53674 81.4872 9.85221 81.2049 10.1262C80.9226 10.3918 80.5967 10.6035 80.2273 10.7613C79.8578 10.919 79.4634 10.9979 79.04 10.9979C78.6166 10.9979 78.2201 10.9211 77.8506 10.7613C77.4812 10.6035 77.1553 10.3918 76.873 10.1262C76.5907 9.85221 76.3707 9.53674 76.2067 9.17976C76.0448 8.82277 75.9639 8.44089 75.9639 8.0341C75.9639 7.6273 76.0448 7.24749 76.2067 6.88844C76.3686 6.53145 76.5907 6.21598 76.873 5.94202C77.1553 5.67636 77.4812 5.46466 77.8506 5.30693C78.2201 5.14919 78.6166 5.07032 79.04 5.07032C79.4634 5.07032 79.8599 5.15127 80.2273 5.30693C80.5967 5.46466 80.9226 5.67636 81.2049 5.94202C81.4851 6.21598 81.7072 6.52938 81.8712 6.88844C82.0352 7.24749 82.114 7.6273 82.114 8.0341Z" fill="white"/>
<path d="M95.7323 11.9423V8.74189H93.7147V7.54642H95.7323V4.99567H97.0752V11.9423H95.7323ZM88.2869 15.6283V12.0066H89.6319V14.4328H97.1769V15.6283H88.2869ZM87.5418 6.4651V5.30699H93.7666V6.4651H91.1264L93.8787 10.5226L92.8575 11.2096L90.7175 7.94906L88.5754 11.2968L87.5293 10.5994L90.2671 6.4651H87.5418Z" fill="white"/>
<path d="M106.762 7.72281H101.061V9.21508H106.762V7.72281ZM101.063 6.55432H106.765V5.18658H108.095V10.4002H99.7302V5.18658H101.063V6.55432ZM98.9331 11.8572H108.892V13.0505H104.585V15.8379H103.23V13.0505H98.9331V11.8572Z" fill="white"/>
</svg>
