<svg width="32" height="28" viewBox="0 0 32 28" fill="none" xmlns="http://www.w3.org/2000/svg">
<path d="M17.834 16.0559C17.834 15.4664 18.0681 14.9011 18.4849 14.4843C18.9017 14.0675 19.467 13.8334 20.0565 13.8334H27.2782C27.57 13.8334 27.859 13.8909 28.1287 14.0026C28.3983 14.1142 28.6433 14.278 28.8497 14.4843C29.0561 14.6907 29.2198 14.9357 29.3315 15.2054C29.4432 15.475 29.5007 15.764 29.5007 16.0559V23.2775C29.5007 23.5694 29.4432 23.8584 29.3315 24.1281C29.2198 24.3977 29.0561 24.6427 28.8497 24.8491C28.6433 25.0555 28.3983 25.2192 28.1287 25.3309C27.859 25.4426 27.57 25.5 27.2782 25.5H20.0565C19.7646 25.5 19.4756 25.4426 19.206 25.3309C18.9363 25.2192 18.6913 25.0555 18.4849 24.8491C18.2786 24.6427 18.1149 24.3977 18.0032 24.1281C17.8915 23.8584 17.834 23.5694 17.834 23.2775V16.0559Z" stroke="white" stroke-width="2" stroke-linecap="round" stroke-linejoin="round"/>
<path d="M15.3433 21.9475C15.0875 21.8021 14.8747 21.5916 14.7266 21.3374C14.5785 21.0832 14.5003 20.7942 14.5 20.5V12.1667C14.5 11.25 15.25 10.5 16.1667 10.5H24.5C25.125 10.5 25.465 10.8208 25.75 11.3333" stroke="white" stroke-width="2" stroke-linecap="round" stroke-linejoin="round"/>
<path d="M10.0004 18.5379C14.6629 18.5379 18.5382 14.6707 18.5382 10C18.5382 5.33752 14.6543 1.46216 9.99182 1.46216C5.32146 1.46216 1.46289 5.33752 1.46289 10C1.46289 14.6707 5.32968 18.5379 10.0004 18.5379ZM9.99253 11.2557C9.5486 11.2557 9.3061 10.9961 9.28896 10.5522L9.17182 6.41787C9.15503 5.95716 9.50646 5.63109 9.9836 5.63109C10.4525 5.63109 10.8122 5.96573 10.7957 6.42609L10.6782 10.5529C10.6615 11.0047 10.4104 11.2561 9.99218 11.2561M9.99218 14.3364C9.50646 14.3364 9.05432 13.9514 9.05432 13.4322C9.05432 12.9129 9.49825 12.5286 9.99218 12.5286C10.4775 12.5286 10.9293 12.905 10.9293 13.4322C10.9293 13.9597 10.469 14.3364 9.99218 14.3364Z" fill="white"/>
</svg>
