<svg width="20" height="20" viewBox="0 0 20 20" fill="none" xmlns="http://www.w3.org/2000/svg">
<path d="M10.0004 18.5379C14.6629 18.5379 18.5382 14.6707 18.5382 10C18.5382 5.33752 14.6543 1.46216 9.99182 1.46216C5.32146 1.46216 1.46289 5.33752 1.46289 10C1.46289 14.6707 5.32968 18.5379 10.0004 18.5379ZM9.99253 11.2557C9.5486 11.2557 9.3061 10.9961 9.28896 10.5522L9.17182 6.41787C9.15503 5.95716 9.50646 5.63109 9.9836 5.63109C10.4525 5.63109 10.8122 5.96573 10.7957 6.42609L10.6782 10.5529C10.6615 11.0047 10.4104 11.2561 9.99218 11.2561M9.99218 14.3364C9.50646 14.3364 9.05432 13.9514 9.05432 13.4322C9.05432 12.9129 9.49825 12.5286 9.99218 12.5286C10.4775 12.5286 10.9293 12.905 10.9293 13.4322C10.9293 13.9597 10.469 14.3364 9.99218 14.3364Z" fill="white"/>
</svg>
