<svg width="22" height="22" viewBox="0 0 22 22" fill="none" xmlns="http://www.w3.org/2000/svg">
<path d="M17.4173 7.33333C18.939 7.33333 20.1673 8.56167 20.1673 10.0833V15.5833H16.5007V19.25H5.50065V15.5833H1.83398V10.0833C1.83398 8.56167 3.06232 7.33333 4.58398 7.33333H5.50065V2.75H16.5007V7.33333H17.4173ZM7.33398 4.58333V7.33333H14.6673V4.58333H7.33398ZM14.6673 17.4167V13.75H7.33398V17.4167H14.6673ZM16.5007 13.75H18.334V10.0833C18.334 9.57917 17.9215 9.16667 17.4173 9.16667H4.58398C4.07982 9.16667 3.66732 9.57917 3.66732 10.0833V13.75H5.50065V11.9167H16.5007V13.75ZM17.4173 10.5417C17.4173 11.0458 17.0048 11.4583 16.5007 11.4583C15.9965 11.4583 15.584 11.0458 15.584 10.5417C15.584 10.0375 15.9965 9.625 16.5007 9.625C17.0048 9.625 17.4173 10.0375 17.4173 10.5417Z" fill="white"/>
</svg>
