<svg width="34" height="29" viewBox="0 0 34 29" fill="none" xmlns="http://www.w3.org/2000/svg">
<path d="M15.6673 25.3333C15.1632 25.3333 14.7317 25.1539 14.373 24.7952C14.0143 24.4365 13.8346 24.0047 13.834 23.5V12.5C13.834 11.9958 14.0137 11.5643 14.373 11.2056C14.7323 10.8469 15.1638 10.6672 15.6673 10.6666H21.1673L23.0007 12.5H30.334C30.8382 12.5 31.2699 12.6796 31.6292 13.039C31.9886 13.3983 32.1679 13.8297 32.1673 14.3333V23.5C32.1673 24.0041 31.988 24.4359 31.6292 24.7952C31.2705 25.1545 30.8388 25.3339 30.334 25.3333H15.6673ZM15.6673 23.5H30.334V14.3333H22.2444L20.4111 12.5H15.6673V23.5Z" fill="white"/>
<path d="M10.0004 18.5379C14.6629 18.5379 18.5382 14.6707 18.5382 10C18.5382 5.33752 14.6543 1.46216 9.99182 1.46216C5.32146 1.46216 1.46289 5.33752 1.46289 10C1.46289 14.6707 5.32968 18.5379 10.0004 18.5379ZM9.99253 11.2557C9.5486 11.2557 9.3061 10.9961 9.28896 10.5522L9.17182 6.41787C9.15503 5.95716 9.50646 5.63109 9.9836 5.63109C10.4525 5.63109 10.8122 5.96573 10.7957 6.42609L10.6782 10.5529C10.6615 11.0047 10.4104 11.2561 9.99218 11.2561M9.99218 14.3364C9.50646 14.3364 9.05432 13.9514 9.05432 13.4322C9.05432 12.9129 9.49825 12.5286 9.99218 12.5286C10.4775 12.5286 10.9293 12.905 10.9293 13.4322C10.9293 13.9597 10.469 14.3364 9.99218 14.3364Z" fill="white"/>
</svg>
