<svg width="105" height="22" viewBox="0 0 105 22" fill="none" xmlns="http://www.w3.org/2000/svg">
<path d="M85.0234 8.64373H104.875V11.2075H96.5484V12.5261H102.482V18.2153H90.4929V19.3873H103.068V21.8291H87.3187V15.9689H99.2832V14.919H87.2698V12.5261H93.3009V11.2075H85.0234V8.64373ZM87.4652 7.54495V0.634847H102.36V7.54495H87.4652ZM90.6394 5.05438H99.1611V3.12541H90.6394V5.05438Z" fill="#2B2D33"/>
<path d="M79.4557 0H82.5323V13.7469H79.4557V7.98446H77.9418V13.0144H74.8897V0.415093H77.9418V5.37181H79.4557V0ZM63.6577 4.71254V2.19756H67.3936V0.219754H70.5922V2.19756H74.3037V4.71254H63.6577ZM64.2926 9.20533C64.2926 6.93452 66.2704 5.37181 69.0051 5.37181C71.7887 5.37181 73.7665 6.93452 73.7665 9.20533C73.7665 11.5006 71.7887 13.0388 69.0051 13.0388C66.2704 13.0388 64.2926 11.5006 64.2926 9.20533ZM67.1494 9.20533C67.1494 10.2064 67.9307 10.768 69.0051 10.768C70.1039 10.768 70.8852 10.2064 70.8852 9.20533C70.8852 8.20422 70.1039 7.69145 69.0051 7.69145C67.9307 7.69145 67.1494 8.20422 67.1494 9.20533ZM67.4912 17.9711C67.4912 15.3829 70.3481 13.9423 75.0606 13.9423C79.7976 13.9423 82.6544 15.3829 82.6544 17.9711C82.6544 20.5105 79.7976 21.9756 75.0606 21.9756C70.3481 21.9756 67.4912 20.5105 67.4912 17.9711ZM70.7387 17.9711C70.7387 19.0699 72.1794 19.5338 75.0606 19.5338C77.9663 19.5338 79.3825 19.0699 79.3825 17.9711C79.3825 16.8479 77.9663 16.3596 75.0606 16.3596C72.1794 16.3596 70.7387 16.8479 70.7387 17.9711Z" fill="#2B2D33"/>
<path d="M56.6249 0H59.8724V6.05549H62.7781V8.71698H59.8724V15.6759H56.6249V0ZM42.3896 11.0122C47.2487 9.69367 49.9346 7.17869 50.4229 4.19978H43.3663V1.61154H53.9635C53.9635 7.6182 50.3253 11.7203 43.757 13.576L42.3896 11.0122ZM45.6372 21.5849V14.0888H48.9091V18.9967H60.6294V21.5849H45.6372Z" fill="#2B2D33"/>
<path d="M21.3657 12.6237H41.2658V15.1876H32.8663V21.9756H29.6188V15.1876H21.3657V12.6237ZM23.6121 10.5727V0.830185H26.8352V3.27192H35.7231V0.830185H38.9218V10.5727H23.6121ZM26.8352 7.98446H35.7231V5.81132H26.8352V7.98446Z" fill="#2B2D33"/>
<path d="M12.0377 5.27414H15.2852V0H18.5327V13.0144H15.2852V7.88679H12.0377V5.27414ZM0 10.4994C3.49168 9.30299 5.02997 6.56826 5.15205 3.88235H0.854606V1.29412H12.697V3.88235H8.44839C8.57048 6.3485 10.0355 8.81465 13.4051 9.96226L11.7936 12.5017C9.42508 11.7203 7.81354 10.1576 6.86126 8.22863C5.90899 10.4262 4.19978 12.1842 1.63596 13.0633L0 10.4994ZM3.51609 17.7514C3.51609 15.0899 6.42175 13.5028 11.0855 13.5028C15.7248 13.5028 18.606 15.0899 18.606 17.7514C18.606 20.4373 15.7248 22 11.0855 22C6.42175 22 3.51609 20.4373 3.51609 17.7514ZM6.78801 17.7514C6.78801 18.9478 8.25305 19.5338 11.0855 19.5338C13.8935 19.5338 15.3829 18.9478 15.3829 17.7514C15.3829 16.5305 13.8935 15.9445 11.0855 15.9445C8.25305 15.9445 6.78801 16.5305 6.78801 17.7514Z" fill="#2B2D33"/>
</svg>
