<svg width="77" height="16" viewBox="0 0 77 16" fill="none" xmlns="http://www.w3.org/2000/svg">
<path d="M61.8352 6.28623H76.2725V8.15082H70.217V9.10976H74.5322V13.2474H65.813V14.0998H74.9584V15.8756H63.5044V11.6136H72.2059V10.85H63.4689V9.10976H67.8551V8.15082H61.8352V6.28623ZM63.611 5.48712V0.461588H74.4434V5.48712H63.611ZM65.9195 3.67579H72.1171V2.27291H65.9195V3.67579Z" fill="white"/>
<path d="M57.786 0H60.0235V9.99778H57.786V5.80688H56.685V9.46504H54.4652V0.301886H56.685V3.90677H57.786V0ZM46.2965 3.4273V1.59822H49.0135V0.159821H51.3398V1.59822H54.039V3.4273H46.2965ZM46.7582 6.69478C46.7582 5.04328 48.1966 3.90677 50.1855 3.90677C52.2099 3.90677 53.6484 5.04328 53.6484 6.69478C53.6484 8.36404 52.2099 9.4828 50.1855 9.4828C48.1966 9.4828 46.7582 8.36404 46.7582 6.69478ZM48.8359 6.69478C48.8359 7.42286 49.4042 7.8313 50.1855 7.8313C50.9846 7.8313 51.5529 7.42286 51.5529 6.69478C51.5529 5.9667 50.9846 5.59378 50.1855 5.59378C49.4042 5.59378 48.8359 5.9667 48.8359 6.69478ZM49.0845 13.0699C49.0845 11.1876 51.1622 10.1398 54.5895 10.1398C58.0346 10.1398 60.1123 11.1876 60.1123 13.0699C60.1123 14.9168 58.0346 15.9822 54.5895 15.9822C51.1622 15.9822 49.0845 14.9168 49.0845 13.0699ZM51.4464 13.0699C51.4464 13.869 52.4941 14.2064 54.5895 14.2064C56.7027 14.2064 57.7327 13.869 57.7327 13.0699C57.7327 12.2531 56.7027 11.8979 54.5895 11.8979C52.4941 11.8979 51.4464 12.2531 51.4464 13.0699Z" fill="white"/>
<path d="M41.182 0H43.5438V4.40399H45.657V6.33962H43.5438V11.4007H41.182V0ZM30.829 8.00888C34.3629 7.04994 36.3163 5.22086 36.6714 3.05438H31.5394V1.17203H39.2464C39.2464 5.54051 36.6004 8.52386 31.8235 9.87347L30.829 8.00888ZM33.1909 15.6981V10.2464H35.5704V13.8158H44.0943V15.6981H33.1909Z" fill="white"/>
<path d="M15.5387 9.18087H30.0115V11.0455H23.9027V15.9822H21.5409V11.0455H15.5387V9.18087ZM17.1724 7.68919V0.603733H19.5165V2.37954H25.9804V0.603733H28.3067V7.68919H17.1724ZM19.5165 5.80684H25.9804V4.22637H19.5165V5.80684Z" fill="white"/>
<path d="M8.75473 3.83574H11.1166V0H13.4784V9.46504H11.1166V5.73585H8.75473V3.83574ZM0 7.63596C2.5394 6.76581 3.65816 4.77691 3.74695 2.82353H0.621533V0.941176H9.2342V2.82353H6.14429C6.23308 4.61709 7.29857 6.41066 9.74918 7.24528L8.57715 9.09212C6.85462 8.52386 5.68258 7.38735 4.99002 5.98446C4.29745 7.58268 3.05439 8.86127 1.18979 9.50056L0 7.63596ZM2.55716 12.9101C2.55716 10.9745 4.67037 9.8202 8.06217 9.8202C11.4362 9.8202 13.5317 10.9745 13.5317 12.9101C13.5317 14.8635 11.4362 16 8.06217 16C4.67037 16 2.55716 14.8635 2.55716 12.9101ZM4.93674 12.9101C4.93674 13.7802 6.00223 14.2064 8.06217 14.2064C10.1043 14.2064 11.1876 13.7802 11.1876 12.9101C11.1876 12.0222 10.1043 11.596 8.06217 11.596C6.00223 11.596 4.93674 12.0222 4.93674 12.9101Z" fill="white"/>
</svg>
