<svg width="110" height="26" viewBox="0 0 110 26" fill="none" xmlns="http://www.w3.org/2000/svg">
<g filter="url(#filter0_d_295_918)">
<path d="M87.481 9.9236H107.355V12.0989H98.7529V13.7551H104.883V19.1191H92.4989V20.7506H105.501V22.8022H89.854V17.2157H102.214V15.782H89.7798V13.7551H96.0338V12.0989H87.481V9.9236ZM89.9776 8.48989V1.69214H104.809V8.48989H89.9776ZM92.6472 6.38876H102.139V3.79326H92.6472V6.38876Z" fill="#F5F8FA"/>
<path d="M82.1906 1H84.7614V14.818H82.1906V8.83596H80.1142V14.0764H77.5681V1.42022H80.1142V6.63595H82.1906V1ZM65.9749 5.52359V3.37303H70.1029V1.19775H72.7726V3.37303H76.8513V5.52359H65.9749ZM66.7411 10.1708C66.7411 7.89663 68.694 6.36405 71.4378 6.36405C74.2063 6.36405 76.1591 7.89663 76.1591 10.1708C76.1591 12.4697 74.2063 13.9775 71.4378 13.9775C68.694 13.9775 66.7411 12.4697 66.7411 10.1708ZM69.1389 10.1708C69.1389 11.3326 70.0782 12.0494 71.4378 12.0494C72.7973 12.0494 73.7614 11.3326 73.7614 10.1708C73.7614 9.00899 72.7973 8.34157 71.4378 8.34157C70.0782 8.34157 69.1389 9.00899 69.1389 10.1708ZM69.9299 19.0449C69.9299 16.5236 72.7232 15.1146 77.3951 15.1146C82.0917 15.1146 84.885 16.5236 84.885 19.0449C84.885 21.5416 82.0917 22.9753 77.3951 22.9753C72.7232 22.9753 69.9299 21.5416 69.9299 19.0449ZM72.6243 19.0449C72.6243 20.3056 74.3052 20.9236 77.3951 20.9236C80.5097 20.9236 82.1659 20.3056 82.1659 19.0449C82.1659 17.7596 80.5097 17.1416 77.3951 17.1416C74.3052 17.1416 72.6243 17.7596 72.6243 19.0449Z" fill="#F5F8FA"/>
<path d="M59.2505 1H61.9696V7.32809H65.0348V9.55281H61.9696V16.8449H59.2505V1ZM44.6663 12.4202C49.6595 10.9618 52.6753 8.21798 53.1202 4.83146H45.6056V2.65618H56.0618C56.0618 8.51461 52.2797 12.6674 45.8033 14.5708L44.6663 12.4202ZM47.9539 22.5551V15.2382H50.673V20.3798H62.8101V22.5551H47.9539Z" fill="#F5F8FA"/>
<path d="M23.4072 13.8292H43.3308V15.9798H34.6544V23H31.9353V15.9798H23.4072V13.8292ZM25.7555 11.5056V1.86517H28.4499V4.55955H38.214V1.86517H40.8836V11.5056H25.7555ZM28.4499 9.33034H38.214V6.68539H28.4499V9.33034Z" fill="#F5F8FA"/>
<path d="M13.8652 6.46292H17.5978V1H20.3169V14.0517H17.5978V8.66292H13.8652V6.46292ZM2 11.8517C5.46068 10.6404 7.31461 7.69888 7.31461 4.73258V4.60899H2.74157V2.43371H14.5573V4.60899H10.0584V4.73258C10.0584 7.42697 11.7888 10.1213 15.1753 11.2831L13.8157 13.409C11.3933 12.5685 9.68764 10.9124 8.74832 8.83596C7.78427 11.1843 5.97978 13.0876 3.35955 14.0022L2 11.8517ZM5.48539 18.8225C5.48539 16.2022 8.32809 14.6202 12.9506 14.6202C17.5483 14.6202 20.391 16.2022 20.391 18.8225C20.391 21.4674 17.5483 23 12.9506 23C8.32809 23 5.48539 21.4674 5.48539 18.8225ZM8.2045 18.8225C8.2045 20.182 9.91012 20.9236 12.9506 20.9236C15.9663 20.9236 17.6966 20.182 17.6966 18.8225C17.6966 17.4382 15.9663 16.6966 12.9506 16.6966C9.91012 16.6966 8.2045 17.4382 8.2045 18.8225Z" fill="#F5F8FA"/>
</g>
<defs>
<filter id="filter0_d_295_918" x="0" y="0" width="109.355" height="26" filterUnits="userSpaceOnUse" color-interpolation-filters="sRGB">
<feFlood flood-opacity="0" result="BackgroundImageFix"/>
<feColorMatrix in="SourceAlpha" type="matrix" values="0 0 0 0 0 0 0 0 0 0 0 0 0 0 0 0 0 0 127 0" result="hardAlpha"/>
<feOffset dy="1"/>
<feGaussianBlur stdDeviation="1"/>
<feComposite in2="hardAlpha" operator="out"/>
<feColorMatrix type="matrix" values="0 0 0 0 0 0 0 0 0 0 0 0 0 0 0 0 0 0 0.02 0"/>
<feBlend mode="normal" in2="BackgroundImageFix" result="effect1_dropShadow_295_918"/>
<feBlend mode="normal" in="SourceGraphic" in2="effect1_dropShadow_295_918" result="shape"/>
</filter>
</defs>
</svg>
