<svg width="131" height="30" viewBox="0 0 131 30" fill="none" xmlns="http://www.w3.org/2000/svg">
<g clip-path="url(#clip0_248_1239)">
<path d="M45.0399 17.3804V15.5831H40.0657V14.2256H51.6074V15.5831H46.6137V17.3804H50.6747V21.6826H49.1203V18.7189H40.8623V17.3804H45.0593H45.0399ZM50.6358 9.56018V13.2504H49.0814V10.9177H40.9595V9.56018H50.6358Z" fill="#58595B"/>
<path d="M60.4288 15.9847H53.667V12.218H58.7383V10.9942H53.667V9.69406H60.2928V13.4799H55.2214V14.7227H60.4482V16.0038L60.4288 15.9847ZM54.3665 16.6348H55.9015V17.6673H62.6633V16.6348H64.1983V21.434H54.3665V16.6348ZM62.6633 18.891H55.9015V20.1338H62.6633V18.891ZM62.6439 9.31165H64.1983V16.2141H62.6439V9.31165Z" fill="#58595B"/>
<path d="M71.3292 16.5774V15.8317H66.355V14.5124H77.8967V15.8317H72.903V16.5774C73.0585 16.6157 73.2139 16.6539 73.3499 16.7113C73.7385 16.8642 74.0689 17.0745 74.3409 17.3422C74.6129 17.6099 74.8461 17.8967 75.021 18.2409C75.1958 18.5851 75.2736 18.9675 75.2736 19.3499C75.2736 19.7323 75.1958 20.1147 75.021 20.4589C74.8461 20.803 74.6323 21.109 74.3409 21.3575C74.0689 21.6252 73.7191 21.8164 73.3499 21.9694C72.9613 22.1223 72.5533 22.1988 72.1258 22.1988C71.6983 22.1988 71.2903 22.1223 70.9017 21.9694C70.5131 21.8164 70.1828 21.6061 69.9107 21.3575C69.6387 21.0898 69.4056 20.803 69.2307 20.4589C69.0558 20.1147 68.9781 19.7323 68.9781 19.3499C68.9781 18.9675 69.0558 18.5851 69.2307 18.2409C69.4056 17.8967 69.6193 17.5908 69.9107 17.3422C70.1828 17.0745 70.5325 16.8833 70.9017 16.7113C71.0377 16.6539 71.1932 16.6157 71.3292 16.5774ZM77.0611 10.7648H72.8253L77.2943 13.0975L76.5754 14.2256L72.1064 11.8929L67.618 14.2256L66.9185 13.0975L71.3875 10.7648H67.1516V9.4646H77.0611V10.7648ZM73.7385 19.3499C73.7385 18.9292 73.5831 18.5659 73.2528 18.2409C72.9225 17.935 72.5533 17.782 72.1258 17.782C71.6983 17.782 71.3097 17.935 70.9989 18.2409C70.6685 18.5468 70.5131 18.9101 70.5131 19.3499C70.5131 19.7896 70.6685 20.1338 70.9989 20.4589C71.3292 20.7648 71.6983 20.9178 72.1258 20.9178C72.5533 20.9178 72.9419 20.7648 73.2528 20.4589C73.5831 20.1529 73.7385 19.7896 73.7385 19.3499Z" fill="#58595B"/>
<path d="M86.1159 12.543C86.1159 12.9828 86.0187 13.4034 85.8439 13.7667C85.669 14.1491 85.4164 14.4742 85.1249 14.761C84.8141 15.0478 84.4643 15.2772 84.0563 15.4302C83.6482 15.6023 83.2208 15.6788 82.7544 15.6788C82.2881 15.6788 81.8606 15.6023 81.4526 15.4302C81.0446 15.2581 80.6948 15.0287 80.3839 14.761C80.073 14.4742 79.8204 14.1491 79.6456 13.7667C79.4707 13.3843 79.3735 12.9828 79.3735 12.543C79.3735 12.1032 79.4707 11.7017 79.6456 11.3193C79.8204 10.9369 80.073 10.6118 80.3839 10.325C80.6948 10.0382 81.0446 9.80878 81.4526 9.65581C81.8606 9.48373 82.2881 9.40725 82.7544 9.40725C83.2208 9.40725 83.6482 9.48373 84.0563 9.65581C84.4643 9.8279 84.8141 10.0573 85.1249 10.325C85.4164 10.5927 85.669 10.9369 85.8439 11.3193C86.0187 11.7017 86.1159 12.1032 86.1159 12.543ZM84.6003 12.5621C84.6003 12.0459 84.4254 11.6252 84.0563 11.2619C83.6871 10.8986 83.2402 10.7266 82.735 10.7266C82.2298 10.7266 81.7635 10.8986 81.4137 11.2619C81.064 11.6252 80.8697 12.065 80.8697 12.5621C80.8697 13.0593 81.0446 13.5181 81.4137 13.8623C81.7635 14.2256 82.2104 14.3977 82.735 14.3977C83.2596 14.3977 83.6871 14.2256 84.0563 13.8623C84.4254 13.499 84.6003 13.0784 84.6003 12.5621ZM89.0888 18.9675C89.0888 19.3881 88.9916 19.7897 88.8167 20.1721C88.6419 20.5545 88.4087 20.8795 88.1172 21.1472C87.8063 21.434 87.4566 21.6635 87.0486 21.8164C86.6405 21.9885 86.2131 22.065 85.7662 22.065C85.3193 22.065 84.8724 21.9885 84.4643 21.8164C84.0563 21.6443 83.7065 21.4149 83.3956 21.1472C83.1042 20.8795 82.8516 20.5354 82.6767 20.1721C82.5018 19.7897 82.4047 19.4072 82.4047 18.9675C82.4047 18.5277 82.5018 18.1453 82.6767 17.7629C82.8516 17.3805 83.0847 17.0554 83.3956 16.7877C83.7065 16.5009 84.0563 16.2715 84.4643 16.1185C84.8724 15.9464 85.2998 15.87 85.7662 15.87C86.2325 15.87 86.66 15.9464 87.0486 16.1185C87.4566 16.2906 87.8063 16.5201 88.1172 16.7877C88.4087 17.0554 88.6419 17.3805 88.8167 17.7629C88.9916 18.1453 89.0888 18.5468 89.0888 18.9675ZM87.5732 18.9484C87.5732 18.4703 87.3983 18.0497 87.0291 17.7055C86.6794 17.3614 86.2519 17.1702 85.7467 17.1702C85.2415 17.1702 84.8335 17.3422 84.4643 17.7055C84.1146 18.0497 83.9397 18.4703 83.9397 18.9484C83.9397 19.4264 84.1146 19.847 84.4643 20.1912C84.8141 20.5354 85.2415 20.7074 85.7467 20.7074C86.2519 20.7074 86.6794 20.5354 87.0291 20.1912C87.3789 19.847 87.5732 19.4264 87.5732 18.9484ZM89.6522 15.87H88.0978V9.31165H89.6522V11.7973H91.4593V13.3269H89.6522V15.87Z" fill="#58595B"/>
<path d="M93.5576 16.3289V9.94263H103.234V11.2811H95.0926V14.9713H103.253V16.3097H99.1535V19.369H104.147V20.7266H92.6055V19.369H97.5797V16.3097H93.5187L93.5576 16.3289Z" fill="#58595B"/>
<path d="M109.588 9.38813L113.707 19.369L112.308 19.9617L109.588 13.1931L106.887 20.0573L105.488 19.4455L109.607 9.36901L109.588 9.38813ZM115.223 14.9139H112.755V13.5564H115.223V9.31165H116.777V21.6635H115.223V14.9139Z" fill="#58595B"/>
<path d="M126.881 15.3728V16.7112H118.74V15.3728H121.285V12.6195H122.839V15.3728H126.9H126.881ZM124.627 14.1873V10.8986H119.284V9.56019H126.162V14.1873H124.627ZM119.614 21.4531V17.7438H121.168V20.0956H129.621V21.4531H119.614ZM129.387 17.4378H127.833V9.33075H129.387V12.6577H131V14.0535H129.387V17.4378Z" fill="#58595B"/>
<path d="M23.5303 14.3212C20.8877 12.543 17.4874 13.2696 15.7192 15.9273C14.2425 18.1453 11.9886 18.4321 11.1142 18.4321C8.27736 18.4321 6.33432 16.4627 5.77084 14.4359C5.77084 14.4359 5.77084 14.3977 5.77084 14.3786C5.77084 14.3595 5.77084 14.3403 5.77084 14.3021C5.53767 13.4608 5.49881 13.0593 5.49881 12.1606C5.49881 7.30402 10.5507 1.91205 17.8371 1.91205C25.1236 1.91205 29.5731 7.49522 30.6612 10.6119C30.6612 10.5545 30.6224 10.4971 30.6029 10.4398C28.4462 4.35946 22.5976 0 15.6998 0C7.03382 0 0 6.92161 0 15.4493C0 23.0784 5.59596 29.6176 13.3487 29.6176C19.5276 29.6176 23.7051 26.195 25.6093 21.4914C26.6586 18.9101 25.9202 15.8891 23.5303 14.3021V14.3212Z" fill="#003964"/>
<path d="M30.7195 10.9178C29.8063 7.89673 25.4927 1.93115 17.7983 1.93115C10.5119 1.93115 5.45996 7.32312 5.45996 12.1797C5.45996 13.0784 5.51825 13.4799 5.73199 14.3212C5.63484 13.9579 5.59597 13.5755 5.59597 13.2122C5.59597 8.16442 10.745 4.66538 16.0301 4.66538C23.1805 4.66538 28.9902 10.3633 28.9902 17.4187C28.9902 22.9445 25.7648 27.7055 21.082 30C27.1249 27.8585 31.4385 22.1606 31.4385 15.4684C31.4385 13.8814 31.2247 12.4856 30.739 10.9178H30.7195Z" fill="#ED193A"/>
</g>
<defs>
<clipPath id="clip0_248_1239">
<rect width="131" height="30" fill="white"/>
</clipPath>
</defs>
</svg>
