<svg width="16" height="16" viewBox="0 0 16 16" fill="none" xmlns="http://www.w3.org/2000/svg">
<path d="M12.1766 3.07192C10.7047 1.60005 8.30783 1.60005 6.83751 3.07192L2.75939 7.14692C2.73283 7.17349 2.71876 7.20942 2.71876 7.24692C2.71876 7.28442 2.73283 7.32036 2.75939 7.34692L3.33595 7.92349C3.36231 7.94973 3.39798 7.96446 3.43517 7.96446C3.47236 7.96446 3.50804 7.94973 3.53439 7.92349L7.61251 3.84849C8.11876 3.34224 8.7922 3.06411 9.50783 3.06411C10.2235 3.06411 10.8969 3.34224 11.4016 3.84849C11.9078 4.35474 12.186 5.02817 12.186 5.74224C12.186 6.45786 11.9078 7.12974 11.4016 7.63599L7.24533 11.7907L6.57189 12.4641C5.9422 13.0938 4.91876 13.0938 4.28908 12.4641C3.98439 12.1594 3.8172 11.7547 3.8172 11.3235C3.8172 10.8922 3.98439 10.4875 4.28908 10.1829L8.41251 6.06099C8.5172 5.95786 8.6547 5.90005 8.80158 5.90005H8.80314C8.95001 5.90005 9.08595 5.95786 9.18908 6.06099C9.29376 6.16567 9.35001 6.30317 9.35001 6.45005C9.35001 6.59536 9.2922 6.73286 9.18908 6.83599L5.81876 10.2032C5.7922 10.2297 5.77814 10.2657 5.77814 10.3032C5.77814 10.3407 5.7922 10.3766 5.81876 10.4032L6.39533 10.9797C6.42168 11.006 6.45736 11.0207 6.49455 11.0207C6.53173 11.0207 6.56741 11.006 6.59376 10.9797L9.96251 7.61099C10.2735 7.30005 10.4438 6.88755 10.4438 6.44849C10.4438 6.00942 10.2719 5.59536 9.96251 5.28599C9.32033 4.6438 8.27658 4.64536 7.63439 5.28599L7.23439 5.68755L3.51251 9.40786C3.25991 9.65899 3.05967 9.95777 2.92341 10.2869C2.78716 10.616 2.7176 10.9689 2.71876 11.325C2.71876 12.0485 3.00158 12.7282 3.51251 13.2391C4.0422 13.7672 4.73595 14.0313 5.4297 14.0313C6.12345 14.0313 6.8172 13.7672 7.34533 13.2391L12.1766 8.41099C12.8875 7.69849 13.2813 6.75005 13.2813 5.74224C13.2828 4.73286 12.8891 3.78442 12.1766 3.07192Z" fill="#666666"/>
</svg>
