<svg width="22" height="22" viewBox="0 0 22 22" fill="none" xmlns="http://www.w3.org/2000/svg">
<path d="M9.16634 16.5C10.7934 16.4998 12.3736 15.9551 13.6553 14.9527L17.6849 18.9823L18.9811 17.6862L14.9514 13.6565C15.9544 12.3748 16.4994 10.7942 16.4997 9.16668C16.4997 5.12326 13.2098 1.83334 9.16634 1.83334C5.12292 1.83334 1.83301 5.12326 1.83301 9.16668C1.83301 13.2101 5.12292 16.5 9.16634 16.5ZM9.16634 3.66668C12.1996 3.66668 14.6663 6.13343 14.6663 9.16668C14.6663 12.1999 12.1996 14.6667 9.16634 14.6667C6.13309 14.6667 3.66634 12.1999 3.66634 9.16668C3.66634 6.13343 6.13309 3.66668 9.16634 3.66668Z" fill="#3B4A59"/>
</svg>
