<svg width="48" height="48" viewBox="0 0 48 48" fill="none" xmlns="http://www.w3.org/2000/svg">
<path fill-rule="evenodd" clip-rule="evenodd" d="M23.1174 0.869988C22.4514 1.08599 22.0674 1.46999 21.8814 2.09699C21.7764 2.44799 21.7584 3.26399 21.7584 7.52399C21.7584 13.167 21.7524 13.095 22.3284 13.671C23.0994 14.439 24.8994 14.439 25.6704 13.671C26.2464 13.095 26.2404 13.167 26.2404 7.52399C26.2404 2.06399 26.2314 1.96799 25.7874 1.43999C25.4154 0.998988 25.0164 0.851988 24.1194 0.827988C23.7849 0.809035 23.4493 0.823103 23.1174 0.869988ZM8.25844 6.79799C7.78444 7.01399 7.08544 7.69799 6.84244 8.18399C6.71743 8.42661 6.64922 8.69448 6.64298 8.96734C6.63675 9.2402 6.69264 9.51091 6.80644 9.75899C7.02844 10.254 14.0004 17.25 14.5494 17.529C15.3294 17.929 16.1224 17.735 16.9284 16.947C17.7204 16.173 17.9304 15.333 17.5284 14.55C17.2494 14.001 10.2534 7.02899 9.75844 6.80699C9.52182 6.7049 9.26706 6.65149 9.00936 6.64994C8.75166 6.64839 8.49628 6.69874 8.25844 6.79799ZM38.5584 6.84599C38.1894 7.01699 37.5594 7.60799 34.5534 10.623C31.7904 13.392 30.9474 14.286 30.8124 14.58C30.7009 14.8239 30.6434 15.0891 30.6439 15.3573C30.6444 15.6256 30.7029 15.8905 30.8154 16.134C31.0254 16.584 31.7154 17.292 32.1804 17.535C32.6514 17.781 33.3504 17.778 33.8394 17.529C34.3404 17.271 41.2704 10.341 41.5284 9.83999C41.6509 9.58194 41.7152 9.30013 41.7168 9.01449C41.7183 8.72885 41.6571 8.44636 41.5374 8.18699C41.2054 7.63179 40.7365 7.17109 40.1754 6.84899C39.9271 6.71513 39.6495 6.64481 39.3673 6.64428C39.0852 6.64376 38.8073 6.71305 38.5584 6.84599ZM2.09644 21.876C1.21244 22.154 0.771444 22.861 0.773444 23.997C0.776444 25.158 1.20844 25.854 2.09344 26.118C2.44744 26.223 3.23644 26.241 7.52344 26.241C11.9904 26.241 12.5874 26.226 12.9534 26.106C13.2225 26.0181 13.4671 25.8679 13.6672 25.6678C13.8674 25.4676 14.0175 25.2231 14.1054 24.954C14.3634 24.159 14.2344 23.031 13.8234 22.473C13.6596 22.2929 13.4657 22.1427 13.2504 22.029L12.8394 21.801L7.64044 21.783C3.45544 21.771 2.37244 21.789 2.09644 21.876ZM35.2344 21.834C34.829 21.9462 34.4625 22.1684 34.1754 22.476C33.7644 23.031 33.6354 24.159 33.8934 24.954C34.0674 25.494 34.5054 25.932 35.0454 26.106C35.4114 26.226 36.0084 26.241 40.4754 26.241C44.7624 26.241 45.5514 26.223 45.9054 26.118C46.7904 25.854 47.2224 25.158 47.2254 23.997C47.2254 22.842 46.7844 22.149 45.8694 21.873C45.5604 21.78 44.5914 21.762 40.4874 21.768C37.7334 21.774 35.3694 21.804 35.2344 21.834ZM14.5584 30.846C14.1894 31.017 13.5594 31.608 10.5534 34.623C7.79044 37.392 6.94744 38.286 6.81244 38.58C6.70086 38.8239 6.64336 39.0891 6.64388 39.3573C6.64439 39.6255 6.70292 39.8905 6.81544 40.134C7.02544 40.584 7.71544 41.292 8.18044 41.535C8.65144 41.781 9.35044 41.778 9.83944 41.529C10.3404 41.271 17.2704 34.341 17.5284 33.84C17.6509 33.5819 17.7152 33.3001 17.7168 33.0145C17.7183 32.7288 17.6571 32.4464 17.5374 32.187C17.2054 31.6318 16.7365 31.1711 16.1754 30.849C15.9271 30.7151 15.6495 30.6448 15.3673 30.6443C15.0852 30.6438 14.8073 30.7131 14.5584 30.846ZM32.2584 30.798C31.7844 31.014 31.0854 31.698 30.8424 32.184C30.7174 32.4266 30.6492 32.6945 30.643 32.9673C30.6367 33.2402 30.6926 33.5109 30.8064 33.759C31.0284 34.254 38.0004 41.25 38.5494 41.529C39.3294 41.929 40.1224 41.735 40.9284 40.947C41.7204 40.173 41.9304 39.333 41.5284 38.55C41.2494 38.001 34.2534 31.029 33.7584 30.807C33.5218 30.7049 33.2671 30.6515 33.0094 30.6499C32.7517 30.6484 32.4963 30.6987 32.2584 30.798ZM23.2344 33.831C22.8293 33.9455 22.4631 34.1685 22.1754 34.476C21.7614 35.034 21.7584 35.073 21.7584 40.467C21.7584 44.763 21.7764 45.552 21.8814 45.906C22.1414 46.786 22.8474 47.225 23.9994 47.223C25.1514 47.227 25.8574 46.788 26.1174 45.906C26.3034 45.27 26.3004 35.625 26.1114 35.07C26.053 34.8464 25.9465 34.6382 25.7993 34.46C25.6522 34.2818 25.4679 34.1377 25.2594 34.038C24.9294 33.858 24.7374 33.813 24.1704 33.792C23.8579 33.7724 23.5442 33.7855 23.2344 33.831Z" fill="#5F3DC4"/>
</svg>
