<svg width="20" height="20" viewBox="0 0 20 20" fill="none" xmlns="http://www.w3.org/2000/svg">
<path d="M8.33366 10.8333C8.77569 10.8333 9.19961 11.0089 9.51217 11.3215C9.82473 11.634 10.0003 12.058 10.0003 12.5C10.0003 13.425 9.25866 14.1666 8.33366 14.1666C7.40866 14.1666 6.66699 13.425 6.66699 12.5C6.66699 11.575 7.41699 10.8333 8.33366 10.8333ZM15.0003 0.833313C12.7003 0.833313 10.8337 2.69998 10.8337 4.99998V6.66665H3.33366C2.41699 6.66665 1.66699 7.41665 1.66699 8.33331V16.6666C1.66699 17.5833 2.41699 18.3333 3.33366 18.3333H13.3337C14.2503 18.3333 15.0003 17.5833 15.0003 16.6666V8.33331C15.0003 7.41665 14.2503 6.66665 13.3337 6.66665H12.5003V4.99998C12.5003 3.61665 13.617 2.49998 15.0003 2.49998C16.3837 2.49998 17.5003 3.61665 17.5003 4.99998V6.66665H19.167V4.99998C19.167 2.69998 17.3003 0.833313 15.0003 0.833313ZM13.3337 8.33331V16.6666H3.33366V8.33331H13.3337Z" fill="#5F3DC4"/>
</svg>
